<svg width="400" height="158" viewBox="0 0 400 158" fill="none" xmlns="http://www.w3.org/2000/svg">
<path d="M113.1 100.643C112.073 100.643 111.285 100.349 110.736 99.7621C110.186 99.1748 109.911 98.3673 109.911 97.3396V64.2507C109.911 63.1863 110.204 62.3788 110.79 61.8283C111.377 61.241 112.183 60.9474 113.21 60.9474C114.126 60.9474 114.841 61.1309 115.354 61.4979C115.904 61.8283 116.399 62.4155 116.839 63.2597L130.419 88.4205H128.66L142.241 63.2597C142.681 62.4155 143.157 61.8283 143.67 61.4979C144.183 61.1309 144.898 60.9474 145.815 60.9474C146.841 60.9474 147.629 61.241 148.179 61.8283C148.729 62.3788 149.004 63.1863 149.004 64.2507V97.3396C149.004 98.3673 148.729 99.1748 148.179 99.7621C147.666 100.349 146.878 100.643 145.815 100.643C144.788 100.643 144 100.349 143.45 99.7621C142.9 99.1748 142.626 98.3673 142.626 97.3396V71.8485H143.835L132.289 92.9351C131.922 93.5591 131.537 94.0179 131.134 94.3115C130.731 94.6051 130.181 94.752 129.485 94.752C128.788 94.752 128.22 94.6051 127.78 94.3115C127.34 93.9812 126.955 93.5224 126.626 92.9351L114.969 71.7935H116.289V97.3396C116.289 98.3673 116.014 99.1748 115.464 99.7621C114.951 100.349 114.163 100.643 113.1 100.643Z" fill="#041E49"/>
<path d="M169.136 100.753C166.351 100.753 163.931 100.184 161.879 99.0463C159.826 97.9085 158.231 96.2935 157.095 94.2014C155.959 92.0725 155.391 89.5767 155.391 86.7137C155.391 84.5482 155.702 82.6212 156.325 80.9328C156.985 79.2077 157.92 77.7395 159.129 76.5283C160.339 75.2804 161.787 74.3444 163.473 73.7204C165.159 73.0598 167.047 72.7294 169.136 72.7294C171.922 72.7294 174.341 73.2983 176.394 74.4362C178.447 75.574 180.041 77.189 181.178 79.2811C182.314 81.3733 182.882 83.8508 182.882 86.7137C182.882 88.8793 182.552 90.8246 181.892 92.5497C181.269 94.2748 180.353 95.7613 179.143 97.0093C177.934 98.2205 176.486 99.1565 174.8 99.8171C173.113 100.441 171.226 100.753 169.136 100.753ZM169.136 95.5227C170.493 95.5227 171.684 95.1924 172.71 94.5317C173.737 93.871 174.525 92.8984 175.075 91.6137C175.661 90.2924 175.954 88.659 175.954 86.7137C175.954 83.7774 175.331 81.5935 174.085 80.162C172.839 78.6938 171.189 77.9598 169.136 77.9598C167.78 77.9598 166.589 78.2901 165.562 78.9508C164.536 79.5748 163.73 80.5474 163.143 81.8688C162.593 83.1534 162.318 84.7684 162.318 86.7137C162.318 89.6134 162.942 91.8156 164.188 93.3205C165.434 94.7887 167.084 95.5227 169.136 95.5227Z" fill="#041E49"/>
<path d="M198.397 100.753C196.821 100.753 195.153 100.588 193.393 100.258C191.634 99.9272 190.058 99.3583 188.665 98.5508C188.078 98.1838 187.657 97.7617 187.4 97.2845C187.18 96.7707 187.089 96.2752 187.125 95.798C187.199 95.2842 187.382 94.8437 187.675 94.4767C188.005 94.1096 188.408 93.8711 188.885 93.7609C189.398 93.6508 189.948 93.7426 190.534 94.0362C192 94.7336 193.375 95.2291 194.658 95.5227C195.941 95.7797 197.205 95.9081 198.452 95.9081C200.211 95.9081 201.512 95.6145 202.355 95.0272C203.235 94.4033 203.675 93.5958 203.675 92.6048C203.675 91.7606 203.382 91.1182 202.795 90.6778C202.245 90.2006 201.402 89.8519 200.266 89.6317L194.768 88.5856C192.495 88.1452 190.754 87.3193 189.544 86.1081C188.371 84.8602 187.785 83.2635 187.785 81.3182C187.785 79.5564 188.262 78.0332 189.215 76.7485C190.204 75.4639 191.56 74.4729 193.283 73.7755C195.006 73.0781 196.985 72.7294 199.221 72.7294C200.834 72.7294 202.337 72.9129 203.73 73.28C205.16 73.6103 206.534 74.1425 207.854 74.8766C208.404 75.1702 208.77 75.5556 208.953 76.0328C209.173 76.51 209.228 77.0055 209.118 77.5193C209.008 77.9965 208.788 78.4369 208.459 78.8407C208.129 79.2077 207.707 79.4463 207.194 79.5564C206.717 79.6298 206.168 79.5197 205.544 79.2261C204.408 78.6388 203.308 78.2167 202.245 77.9598C201.219 77.7028 200.229 77.5744 199.276 77.5744C197.48 77.5744 196.142 77.8864 195.263 78.5103C194.42 79.1343 193.998 79.9602 193.998 80.9879C193.998 81.7587 194.255 82.401 194.768 82.9148C195.281 83.4287 196.069 83.7774 197.132 83.9609L202.63 85.007C205.013 85.4474 206.809 86.2549 208.019 87.4295C209.265 88.604 209.888 90.1823 209.888 92.1643C209.888 94.8437 208.843 96.9542 206.754 98.4958C204.665 100.001 201.879 100.753 198.397 100.753Z" fill="#041E49"/>
<path d="M227.45 100.753C225.067 100.753 223.069 100.349 221.456 99.5419C219.88 98.7344 218.707 97.5598 217.938 96.0182C217.168 94.44 216.783 92.4946 216.783 90.1823V78.4553H213.924C213.044 78.4553 212.366 78.2351 211.889 77.7946C211.413 77.3174 211.175 76.6751 211.175 75.8676C211.175 75.0234 211.413 74.3811 211.889 73.9407C212.366 73.5002 213.044 73.28 213.924 73.28H216.783V68.2698C216.783 67.132 217.076 66.2695 217.663 65.6822C218.286 65.0949 219.147 64.8013 220.247 64.8013C221.346 64.8013 222.19 65.0949 222.776 65.6822C223.362 66.2695 223.656 67.132 223.656 68.2698V73.28H229.484C230.364 73.28 231.042 73.5002 231.518 73.9407C231.995 74.3811 232.233 75.0234 232.233 75.8676C232.233 76.6751 231.995 77.3174 231.518 77.7946C231.042 78.2351 230.364 78.4553 229.484 78.4553H223.656V89.7969C223.656 91.5587 224.041 92.88 224.81 93.7609C225.58 94.6418 226.826 95.0823 228.549 95.0823C229.172 95.0823 229.722 95.0272 230.199 94.9171C230.675 94.807 231.097 94.7336 231.463 94.6969C231.903 94.6602 232.27 94.807 232.563 95.1373C232.856 95.431 233.003 96.0549 233.003 97.0093C233.003 97.7433 232.875 98.404 232.618 98.9913C232.398 99.5419 231.976 99.9272 231.353 100.147C230.877 100.294 230.254 100.423 229.484 100.533C228.714 100.68 228.036 100.753 227.45 100.753Z" fill="#041E49"/>
<path d="M245.087 100.753C243.145 100.753 241.404 100.386 239.864 99.652C238.361 98.8812 237.17 97.8535 236.29 96.5688C235.447 95.2842 235.026 93.8343 235.026 92.2194C235.026 90.2373 235.539 88.6774 236.565 87.5396C237.591 86.365 239.259 85.5208 241.569 85.007C243.878 84.4931 246.975 84.2362 250.861 84.2362H253.61V88.2002H250.916C248.643 88.2002 246.829 88.3104 245.472 88.5306C244.116 88.7508 243.145 89.1362 242.558 89.6868C242.008 90.2006 241.734 90.9347 241.734 91.889C241.734 93.1003 242.155 94.0913 242.998 94.8621C243.841 95.6329 245.014 96.0182 246.517 96.0182C247.727 96.0182 248.79 95.743 249.706 95.1924C250.659 94.6051 251.41 93.816 251.96 92.825C252.51 91.834 252.785 90.6961 252.785 89.4115V83.08C252.785 81.2448 252.382 79.9234 251.575 79.1159C250.769 78.3085 249.413 77.9047 247.507 77.9047C246.444 77.9047 245.289 78.0332 244.043 78.2901C242.833 78.547 241.55 78.9875 240.194 79.6115C239.498 79.9418 238.874 80.0336 238.325 79.8867C237.811 79.7399 237.408 79.4463 237.115 79.0058C236.822 78.5287 236.675 78.0148 236.675 77.4643C236.675 76.9137 236.822 76.3815 237.115 75.8676C237.408 75.3171 237.903 74.9133 238.599 74.6564C240.286 73.959 241.898 73.4635 243.438 73.1699C245.014 72.8762 246.444 72.7294 247.727 72.7294C250.366 72.7294 252.528 73.1332 254.215 73.9407C255.937 74.7482 257.22 75.9777 258.063 77.6294C258.906 79.2444 259.328 81.3366 259.328 83.9058V97.1194C259.328 98.2572 259.053 99.1381 258.503 99.7621C257.953 100.349 257.165 100.643 256.139 100.643C255.113 100.643 254.306 100.349 253.72 99.7621C253.17 99.1381 252.895 98.2572 252.895 97.1194V94.4767H253.335C253.078 95.7613 252.565 96.8808 251.795 97.8351C251.062 98.7527 250.128 99.4684 248.991 99.9823C247.855 100.496 246.554 100.753 245.087 100.753Z" fill="#041E49"/>
<path d="M288.682 110.553C287.582 110.553 286.739 110.259 286.153 109.672C285.566 109.085 285.273 108.222 285.273 107.085V94.6969H285.878C285.291 96.4954 284.155 97.9636 282.469 99.1014C280.819 100.203 278.877 100.753 276.641 100.753C274.295 100.753 272.224 100.184 270.428 99.0463C268.668 97.9085 267.294 96.2935 266.304 94.2014C265.314 92.0725 264.819 89.5767 264.819 86.7137C264.819 83.8141 265.314 81.3366 266.304 79.2811C267.294 77.189 268.668 75.574 270.428 74.4362C272.224 73.2983 274.295 72.7294 276.641 72.7294C278.913 72.7294 280.893 73.2983 282.579 74.4362C284.265 75.574 285.383 77.0789 285.933 78.9508L285.328 80.6025V76.3081C285.328 75.1702 285.621 74.3077 286.208 73.7204C286.794 73.1332 287.637 72.8395 288.737 72.8395C289.837 72.8395 290.68 73.1332 291.266 73.7204C291.853 74.3077 292.146 75.1702 292.146 76.3081V107.085C292.146 108.222 291.834 109.085 291.211 109.672C290.625 110.259 289.782 110.553 288.682 110.553ZM278.565 95.5227C279.921 95.5227 281.113 95.1924 282.139 94.5317C283.165 93.871 283.953 92.8984 284.503 91.6137C285.09 90.2924 285.383 88.659 285.383 86.7137C285.383 83.7774 284.76 81.5935 283.514 80.162C282.267 78.6938 280.618 77.9598 278.565 77.9598C277.209 77.9598 276.018 78.2901 274.991 78.9508C273.965 79.5748 273.159 80.5474 272.572 81.8688C272.022 83.1534 271.747 84.7684 271.747 86.7137C271.747 89.6134 272.37 91.8156 273.617 93.3205C274.863 94.7887 276.512 95.5227 278.565 95.5227Z" fill="#041E49"/>
<path d="M312.523 100.753C309.481 100.753 306.86 100.184 304.661 99.0463C302.461 97.9085 300.757 96.2935 299.547 94.2014C298.374 92.1092 297.788 89.6317 297.788 86.7688C297.788 83.9793 298.356 81.5384 299.492 79.4463C300.665 77.3541 302.26 75.7208 304.276 74.5463C306.328 73.335 308.656 72.7294 311.258 72.7294C313.165 72.7294 314.869 73.0414 316.372 73.6654C317.911 74.2893 319.213 75.1886 320.276 76.3631C321.375 77.5377 322.2 78.9691 322.75 80.6575C323.336 82.3092 323.63 84.1811 323.63 86.2733C323.63 86.9339 323.391 87.4478 322.915 87.8149C322.475 88.1452 321.834 88.3104 320.99 88.3104H303.341V84.3463H318.791L317.911 85.1721C317.911 83.4838 317.655 82.0706 317.142 80.9328C316.665 79.795 315.95 78.9324 314.997 78.3452C314.081 77.7212 312.926 77.4092 311.533 77.4092C309.994 77.4092 308.674 77.7762 307.575 78.5103C306.512 79.2077 305.687 80.2171 305.1 81.5384C304.551 82.8231 304.276 84.3647 304.276 86.1632V86.5486C304.276 89.5583 304.972 91.8156 306.365 93.3205C307.795 94.7887 309.884 95.5227 312.633 95.5227C313.586 95.5227 314.649 95.4126 315.822 95.1924C317.032 94.9355 318.168 94.5134 319.231 93.9261C320.001 93.4857 320.679 93.3021 321.265 93.3755C321.852 93.4122 322.31 93.6141 322.64 93.9812C323.007 94.3482 323.226 94.807 323.3 95.3576C323.373 95.8714 323.263 96.4036 322.97 96.9542C322.713 97.5048 322.255 97.9819 321.595 98.3857C320.312 99.1932 318.828 99.7988 317.142 100.203C315.492 100.57 313.953 100.753 312.523 100.753Z" fill="#041E49"/>
<path d="M342.323 100.753C339.281 100.753 336.66 100.184 334.461 99.0463C332.262 97.9085 330.557 96.2935 329.347 94.2014C328.174 92.1092 327.588 89.6317 327.588 86.7688C327.588 83.9793 328.156 81.5384 329.292 79.4463C330.465 77.3541 332.06 75.7208 334.076 74.5463C336.129 73.335 338.456 72.7294 341.059 72.7294C342.965 72.7294 344.669 73.0414 346.172 73.6654C347.712 74.2893 349.013 75.1886 350.076 76.3631C351.176 77.5377 352 78.9691 352.55 80.6575C353.137 82.3092 353.43 84.1811 353.43 86.2733C353.43 86.9339 353.192 87.4478 352.715 87.8149C352.275 88.1452 351.634 88.3104 350.791 88.3104H333.141V84.3463H348.591L347.712 85.1721C347.712 83.4838 347.455 82.0706 346.942 80.9328C346.465 79.795 345.751 78.9324 344.798 78.3452C343.881 77.7212 342.727 77.4092 341.334 77.4092C339.794 77.4092 338.475 77.7762 337.375 78.5103C336.312 79.2077 335.487 80.2171 334.901 81.5384C334.351 82.8231 334.076 84.3647 334.076 86.1632V86.5486C334.076 89.5583 334.772 91.8156 336.165 93.3205C337.595 94.7887 339.684 95.5227 342.433 95.5227C343.386 95.5227 344.449 95.4126 345.622 95.1924C346.832 94.9355 347.968 94.5134 349.031 93.9261C349.801 93.4857 350.479 93.3021 351.066 93.3755C351.652 93.4122 352.11 93.6141 352.44 93.9812C352.807 94.3482 353.027 94.807 353.1 95.3576C353.173 95.8714 353.063 96.4036 352.77 96.9542C352.514 97.5048 352.055 97.9819 351.396 98.3857C350.113 99.1932 348.628 99.7988 346.942 100.203C345.292 100.57 343.753 100.753 342.323 100.753Z" fill="#041E49"/>
<path d="M362.392 100.643C361.292 100.643 360.449 100.349 359.862 99.7621C359.276 99.1381 358.983 98.2572 358.983 97.1194V76.3081C358.983 75.1702 359.276 74.3077 359.862 73.7204C360.449 73.1332 361.274 72.8395 362.337 72.8395C363.4 72.8395 364.224 73.1332 364.811 73.7204C365.397 74.3077 365.691 75.1702 365.691 76.3081V80.3272L365.086 78.6755C365.819 76.8403 366.955 75.3905 368.495 74.3261C370.034 73.2616 371.867 72.7294 373.993 72.7294C376.156 72.7294 377.934 73.2433 379.326 74.271C380.719 75.2987 381.691 76.877 382.241 79.0058H381.471C382.204 77.0605 383.414 75.5373 385.1 74.4362C386.786 73.2983 388.729 72.7294 390.928 72.7294C392.981 72.7294 394.667 73.1332 395.986 73.9407C397.342 74.7482 398.351 75.9777 399.01 77.6294C399.67 79.2444 400 81.2999 400 83.7957V97.1194C400 98.2572 399.688 99.1381 399.065 99.7621C398.479 100.349 397.636 100.643 396.536 100.643C395.436 100.643 394.593 100.349 394.007 99.7621C393.42 99.1381 393.127 98.2572 393.127 97.1194V84.071C393.127 82.0156 392.779 80.5107 392.082 79.5564C391.423 78.6021 390.286 78.1249 388.674 78.1249C386.877 78.1249 385.466 78.7673 384.44 80.0519C383.413 81.2998 382.9 83.0433 382.9 85.2823V97.1194C382.9 98.2572 382.607 99.1381 382.021 99.7621C381.434 100.349 380.591 100.643 379.491 100.643C378.392 100.643 377.53 100.349 376.907 99.7621C376.321 99.1381 376.027 98.2572 376.027 97.1194V84.071C376.027 82.0156 375.679 80.5107 374.983 79.5564C374.323 78.6021 373.205 78.1249 371.629 78.1249C369.833 78.1249 368.421 78.7673 367.395 80.0519C366.369 81.2998 365.856 83.0433 365.856 85.2823V97.1194C365.856 99.4684 364.701 100.643 362.392 100.643Z" fill="#041E49"/>
<path fill-rule="evenodd" clip-rule="evenodd" d="M76.9239 75.2596C60.6182 69.4677 43.7857 75.6351 33.2455 82.7913C27.689 86.5638 22.9615 90.889 18.994 96.5334C15.3178 101.76 11.3799 108.448 11.3403 116.881C11.3272 119.566 11.7813 123.911 13.7145 124.413C15.6213 124.908 20.7149 123.195 22.4249 122.695C27.9199 121.085 32.865 119.294 37.6002 117.013C40.0315 115.842 42.3749 114.992 44.8579 113.974C46.5437 113.283 48.3031 111.841 50.0043 110.803C61.7959 103.597 71.8809 94.0756 79.0353 82.5248C87.5884 91.5067 90.3507 105.794 89.1961 122.033C88.1382 136.916 81.9845 148.928 71.2497 154.538C59.1985 160.837 41.8196 157.658 31.2672 152.028C19.9375 145.984 11.6999 138.122 6.06199 126.79C0.407553 115.423 -1.46406 98.6442 1.18061 83.8462C6.28302 55.2885 19.0445 34.66 36.4136 18.175C40.5934 14.2076 45.1823 10.4175 50.4013 6.94349C56.5847 2.82638 68.6248 -3.21 77.1889 2.05449C86.4832 7.76824 88.268 23.2148 86.5569 38.2606C84.9415 52.4718 81.736 65.0819 76.9239 75.2596Z" fill="#05EECB"/>
<path fill-rule="evenodd" clip-rule="evenodd" d="M75.0765 79.6201C68.594 91.4274 58.2748 100.349 46.7042 107.501C39.7863 111.776 33.2345 114.325 24.6682 117.014C22.8373 117.588 17.8921 119.824 16.6187 118.599C15.1386 117.178 16.5945 112.052 17.2785 109.878C21.3549 96.9287 31.6532 87.9214 43.1435 82.3938C50.9808 78.6246 65.1191 75.0019 75.0765 79.6201Z" fill="#05EECB"/>
</svg>
