<svg width="200" height="79" viewBox="0 0 200 79" fill="none" xmlns="http://www.w3.org/2000/svg">
<path d="M56.5499 50.3215C56.0367 50.3215 55.6427 50.1747 55.3678 49.881C55.0928 49.5874 54.9554 49.1837 54.9554 48.6698V32.1254C54.9554 31.5932 55.102 31.1894 55.3952 30.9141C55.6885 30.6205 56.0917 30.4737 56.6049 30.4737C57.0631 30.4737 57.4205 30.5654 57.677 30.749C57.952 30.9141 58.1994 31.2078 58.4193 31.6299L65.2097 44.2102H64.33L71.1204 31.6299C71.3403 31.2078 71.5785 30.9141 71.8351 30.749C72.0917 30.5654 72.4491 30.4737 72.9073 30.4737C73.4205 30.4737 73.8145 30.6205 74.0894 30.9141C74.3643 31.1894 74.5018 31.5932 74.5018 32.1254V48.6698C74.5018 49.1837 74.3643 49.5874 74.0894 49.881C73.8328 50.1747 73.4388 50.3215 72.9073 50.3215C72.3941 50.3215 72.0001 50.1747 71.7252 49.881C71.4502 49.5874 71.3128 49.1837 71.3128 48.6698V35.9243H71.9176L66.1444 46.4675C65.9611 46.7795 65.7687 47.0089 65.5671 47.1558C65.3655 47.3026 65.0906 47.376 64.7423 47.376C64.3941 47.376 64.11 47.3026 63.8901 47.1558C63.6702 46.9906 63.4777 46.7612 63.3128 46.4675L57.4846 35.8967H58.1444V48.6698C58.1444 49.1837 58.0069 49.5874 57.732 49.881C57.4754 50.1747 57.0814 50.3215 56.5499 50.3215Z" fill="#041E49"/>
<path d="M84.5682 50.3765C83.1753 50.3765 81.9657 50.0921 80.9393 49.5232C79.913 48.9543 79.1157 48.1468 78.5475 47.1007C77.9794 46.0363 77.6953 44.7883 77.6953 43.3569C77.6953 42.2741 77.8511 41.3106 78.1627 40.4664C78.4926 39.6039 78.9599 38.8698 79.5647 38.2642C80.1695 37.6402 80.8935 37.1722 81.7366 36.8602C82.5796 36.5299 83.5235 36.3647 84.5682 36.3647C85.9611 36.3647 87.1707 36.6492 88.197 37.2181C89.2234 37.787 90.0206 38.5945 90.5888 39.6406C91.157 40.6866 91.441 41.9254 91.441 43.3569C91.441 44.4396 91.2761 45.4123 90.9462 46.2749C90.6346 47.1374 90.1764 47.8807 89.5716 48.5046C88.9668 49.1102 88.2429 49.5782 87.3998 49.9086C86.5567 50.2206 85.6128 50.3765 84.5682 50.3765ZM84.5682 47.7614C85.2463 47.7614 85.8419 47.5962 86.3551 47.2659C86.8683 46.9355 87.2623 46.4492 87.5373 45.8069C87.8305 45.1462 87.9771 44.3295 87.9771 43.3569C87.9771 41.8887 87.6655 40.7967 87.0424 40.081C86.4193 39.3469 85.5945 38.9799 84.5682 38.9799C83.89 38.9799 83.2944 39.1451 82.7812 39.4754C82.2681 39.7874 81.8648 40.2737 81.5716 40.9344C81.2967 41.5767 81.1592 42.3842 81.1592 43.3569C81.1592 44.8067 81.4708 45.9078 82.0939 46.6602C82.7171 47.3943 83.5418 47.7614 84.5682 47.7614Z" fill="#041E49"/>
<path d="M99.1983 50.3765C98.4103 50.3765 97.5763 50.294 96.6966 50.1288C95.8169 49.9636 95.0288 49.6792 94.3324 49.2754C94.0391 49.0919 93.8283 48.8808 93.7001 48.6423C93.5901 48.3853 93.5443 48.1376 93.5626 47.899C93.5993 47.6421 93.6909 47.4219 93.8375 47.2383C94.0025 47.0548 94.2041 46.9355 94.4423 46.8805C94.6989 46.8254 94.9738 46.8713 95.2671 47.0181C96.0002 47.3668 96.6875 47.6146 97.3289 47.7614C97.9704 47.8898 98.6027 47.9541 99.2258 47.9541C100.106 47.9541 100.756 47.8073 101.178 47.5136C101.618 47.2016 101.838 46.7979 101.838 46.3024C101.838 45.8803 101.691 45.5591 101.398 45.3389C101.123 45.1003 100.701 44.926 100.133 44.8159L97.3839 44.2928C96.2476 44.0726 95.377 43.6597 94.7722 43.0541C94.1857 42.4301 93.8925 41.6318 93.8925 40.6591C93.8925 39.7782 94.1308 39.0166 94.6073 38.3743C95.1021 37.7319 95.7802 37.2364 96.6416 36.8877C97.503 36.5391 98.4927 36.3647 99.6107 36.3647C100.417 36.3647 101.169 36.4565 101.865 36.64C102.58 36.8052 103.267 37.0713 103.927 37.4383C104.202 37.5851 104.385 37.7778 104.477 38.0164C104.587 38.255 104.614 38.5027 104.559 38.7597C104.504 38.9982 104.394 39.2185 104.229 39.4203C104.064 39.6039 103.854 39.7231 103.597 39.7782C103.359 39.8149 103.084 39.7598 102.772 39.613C102.204 39.3194 101.654 39.1084 101.123 38.9799C100.61 38.8514 100.115 38.7872 99.6382 38.7872C98.7402 38.7872 98.0712 38.9432 97.6313 39.2552C97.2098 39.5671 96.999 39.9801 96.999 40.4939C96.999 40.8793 97.1273 41.2005 97.3839 41.4574C97.6405 41.7144 98.0345 41.8887 98.566 41.9805L101.315 42.5035C102.506 42.7237 103.405 43.1275 104.009 43.7147C104.632 44.302 104.944 45.0911 104.944 46.0821C104.944 47.4219 104.422 48.4771 103.377 49.2479C102.332 50.0003 100.939 50.3765 99.1983 50.3765Z" fill="#041E49"/>
<path d="M113.725 50.3765C112.533 50.3765 111.535 50.1747 110.728 49.7709C109.94 49.3672 109.354 48.7799 108.969 48.0091C108.584 47.22 108.391 46.2473 108.391 45.0911V39.2276H106.962C106.522 39.2276 106.183 39.1175 105.945 38.8973C105.706 38.6587 105.587 38.3376 105.587 37.9338C105.587 37.5117 105.706 37.1906 105.945 36.9703C106.183 36.7501 106.522 36.64 106.962 36.64H108.391V34.1349C108.391 33.566 108.538 33.1347 108.831 32.8411C109.143 32.5475 109.574 32.4007 110.123 32.4007C110.673 32.4007 111.095 32.5475 111.388 32.8411C111.681 33.1347 111.828 33.566 111.828 34.1349V36.64H114.742C115.182 36.64 115.521 36.7501 115.759 36.9703C115.997 37.1906 116.117 37.5117 116.117 37.9338C116.117 38.3376 115.997 38.6587 115.759 38.8973C115.521 39.1175 115.182 39.2276 114.742 39.2276H111.828V44.8984C111.828 45.7793 112.02 46.44 112.405 46.8805C112.79 47.3209 113.413 47.5411 114.275 47.5411C114.586 47.5411 114.861 47.5136 115.099 47.4586C115.338 47.4035 115.548 47.3668 115.732 47.3484C115.952 47.3301 116.135 47.4035 116.281 47.5687C116.428 47.7155 116.501 48.0275 116.501 48.5046C116.501 48.8717 116.437 49.202 116.309 49.4956C116.199 49.7709 115.988 49.9636 115.677 50.0737C115.438 50.1471 115.127 50.2114 114.742 50.2664C114.357 50.3398 114.018 50.3765 113.725 50.3765Z" fill="#041E49"/>
<path d="M122.544 50.3765C121.572 50.3765 120.702 50.193 119.932 49.826C119.181 49.4406 118.585 48.9267 118.145 48.2844C117.724 47.6421 117.513 46.9172 117.513 46.1097C117.513 45.1187 117.769 44.3387 118.283 43.7698C118.796 43.1825 119.63 42.7604 120.784 42.5035C121.939 42.2466 123.488 42.1181 125.43 42.1181H126.805V44.1001H125.458C124.322 44.1001 123.414 44.1552 122.736 44.2653C122.058 44.3754 121.572 44.5681 121.279 44.8434C121.004 45.1003 120.867 45.4674 120.867 45.9445C120.867 46.5501 121.078 47.0456 121.499 47.431C121.921 47.8164 122.507 48.0091 123.259 48.0091C123.863 48.0091 124.395 47.8715 124.853 47.5962C125.33 47.3026 125.705 46.908 125.98 46.4125C126.255 45.917 126.393 45.3481 126.393 44.7057V41.54C126.393 40.6224 126.191 39.9617 125.788 39.558C125.385 39.1542 124.706 38.9524 123.753 38.9524C123.222 38.9524 122.645 39.0166 122.021 39.1451C121.417 39.2735 120.775 39.4937 120.097 39.8057C119.749 39.9709 119.437 40.0168 119.162 39.9434C118.906 39.87 118.704 39.7231 118.557 39.5029C118.411 39.2643 118.338 39.0074 118.338 38.7321C118.338 38.4568 118.411 38.1907 118.557 37.9338C118.704 37.6585 118.952 37.4567 119.3 37.3282C120.143 36.9795 120.949 36.7317 121.719 36.5849C122.507 36.4381 123.222 36.3647 123.863 36.3647C125.183 36.3647 126.264 36.5666 127.107 36.9703C127.969 37.3741 128.61 37.9889 129.032 38.8147C129.453 39.6222 129.664 40.6683 129.664 41.9529V48.5597C129.664 49.1286 129.527 49.5691 129.252 49.881C128.977 50.1747 128.583 50.3215 128.07 50.3215C127.556 50.3215 127.153 50.1747 126.86 49.881C126.585 49.5691 126.448 49.1286 126.448 48.5597V47.2383H126.667C126.539 47.8807 126.283 48.4404 125.898 48.9176C125.531 49.3764 125.064 49.7342 124.496 49.9912C123.927 50.2481 123.277 50.3765 122.544 50.3765Z" fill="#041E49"/>
<path d="M144.341 55.2766C143.791 55.2766 143.37 55.1297 143.076 54.8361C142.783 54.5425 142.637 54.1112 142.637 53.5423V47.3484H142.939C142.646 48.2477 142.078 48.9818 141.234 49.5507C140.41 50.1013 139.438 50.3765 138.32 50.3765C137.147 50.3765 136.112 50.0921 135.214 49.5232C134.334 48.9543 133.647 48.1468 133.152 47.1007C132.657 46.0363 132.41 44.7883 132.41 43.3569C132.41 41.907 132.657 40.6683 133.152 39.6406C133.647 38.5945 134.334 37.787 135.214 37.2181C136.112 36.6492 137.147 36.3647 138.32 36.3647C139.457 36.3647 140.446 36.6492 141.289 37.2181C142.133 37.787 142.692 38.5394 142.966 39.4754L142.664 40.3012V38.154C142.664 37.5851 142.811 37.1538 143.104 36.8602C143.397 36.5666 143.819 36.4198 144.368 36.4198C144.918 36.4198 145.34 36.5666 145.633 36.8602C145.926 37.1538 146.073 37.5851 146.073 38.154V53.5423C146.073 54.1112 145.917 54.5425 145.606 54.8361C145.312 55.1297 144.891 55.2766 144.341 55.2766ZM139.283 47.7614C139.961 47.7614 140.556 47.5962 141.07 47.2659C141.583 46.9355 141.977 46.4492 142.252 45.8069C142.545 45.1462 142.692 44.3295 142.692 43.3569C142.692 41.8887 142.38 40.7967 141.757 40.081C141.134 39.3469 140.309 38.9799 139.283 38.9799C138.604 38.9799 138.009 39.1451 137.496 39.4754C136.982 39.7874 136.579 40.2737 136.286 40.9344C136.011 41.5767 135.874 42.3842 135.874 43.3569C135.874 44.8067 136.185 45.9078 136.808 46.6602C137.431 47.3943 138.256 47.7614 139.283 47.7614Z" fill="#041E49"/>
<path d="M156.262 50.3765C154.74 50.3765 153.43 50.0921 152.33 49.5232C151.231 48.9543 150.378 48.1468 149.774 47.1007C149.187 46.0546 148.894 44.8159 148.894 43.3844C148.894 41.9896 149.178 40.7692 149.746 39.7231C150.333 38.6771 151.13 37.8604 152.138 37.2731C153.164 36.6675 154.328 36.3647 155.629 36.3647C156.582 36.3647 157.435 36.5207 158.186 36.8327C158.956 37.1447 159.606 37.5943 160.138 38.1816C160.688 38.7688 161.1 39.4846 161.375 40.3288C161.668 41.1546 161.815 42.0906 161.815 43.1366C161.815 43.467 161.696 43.7239 161.457 43.9074C161.238 44.0726 160.917 44.1552 160.495 44.1552H151.67V42.1732H159.396L158.956 42.5861C158.956 41.7419 158.827 41.0353 158.571 40.4664C158.333 39.8975 157.975 39.4662 157.499 39.1726C157.04 38.8606 156.463 38.7046 155.767 38.7046C154.997 38.7046 154.337 38.8881 153.787 39.2552C153.256 39.6039 152.843 40.1085 152.55 40.7692C152.275 41.4115 152.138 42.1823 152.138 43.0816V43.2743C152.138 44.7792 152.486 45.9078 153.183 46.6602C153.897 47.3943 154.942 47.7614 156.317 47.7614C156.793 47.7614 157.325 47.7063 157.911 47.5962C158.516 47.4677 159.084 47.2567 159.616 46.9631C160 46.7428 160.339 46.6511 160.633 46.6878C160.926 46.7061 161.155 46.8071 161.32 46.9906C161.503 47.1741 161.613 47.4035 161.65 47.6788C161.687 47.9357 161.632 48.2018 161.485 48.4771C161.357 48.7524 161.128 48.991 160.798 49.1928C160.156 49.5966 159.414 49.8994 158.571 50.1013C157.746 50.2848 156.976 50.3765 156.262 50.3765Z" fill="#041E49"/>
<path d="M171.162 50.3765C169.64 50.3765 168.33 50.0921 167.23 49.5232C166.131 48.9543 165.279 48.1468 164.674 47.1007C164.087 46.0546 163.794 44.8159 163.794 43.3844C163.794 41.9896 164.078 40.7692 164.646 39.7231C165.233 38.6771 166.03 37.8604 167.038 37.2731C168.064 36.6675 169.228 36.3647 170.529 36.3647C171.482 36.3647 172.335 36.5207 173.086 36.8327C173.856 37.1447 174.506 37.5943 175.038 38.1816C175.588 38.7688 176 39.4846 176.275 40.3288C176.568 41.1546 176.715 42.0906 176.715 43.1366C176.715 43.467 176.596 43.7239 176.358 43.9074C176.138 44.0726 175.817 44.1552 175.395 44.1552H166.571V42.1732H174.296L173.856 42.5861C173.856 41.7419 173.728 41.0353 173.471 40.4664C173.233 39.8975 172.875 39.4662 172.399 39.1726C171.941 38.8606 171.363 38.7046 170.667 38.7046C169.897 38.7046 169.237 38.8881 168.687 39.2552C168.156 39.6039 167.744 40.1085 167.45 40.7692C167.175 41.4115 167.038 42.1823 167.038 43.0816V43.2743C167.038 44.7792 167.386 45.9078 168.083 46.6602C168.797 47.3943 169.842 47.7614 171.217 47.7614C171.693 47.7614 172.225 47.7063 172.811 47.5962C173.416 47.4677 173.984 47.2567 174.516 46.9631C174.901 46.7428 175.24 46.6511 175.533 46.6878C175.826 46.7061 176.055 46.8071 176.22 46.9906C176.403 47.1741 176.513 47.4035 176.55 47.6788C176.587 47.9357 176.532 48.2018 176.385 48.4771C176.257 48.7524 176.028 48.991 175.698 49.1928C175.056 49.5966 174.314 49.8994 173.471 50.1013C172.646 50.2848 171.876 50.3765 171.162 50.3765Z" fill="#041E49"/>
<path d="M181.196 50.3215C180.646 50.3215 180.224 50.1747 179.931 49.881C179.638 49.5691 179.491 49.1286 179.491 48.5597V38.154C179.491 37.5851 179.638 37.1538 179.931 36.8602C180.224 36.5666 180.637 36.4198 181.168 36.4198C181.7 36.4198 182.112 36.5666 182.405 36.8602C182.699 37.1538 182.845 37.5851 182.845 38.154V40.1636L182.543 39.3377C182.909 38.4201 183.478 37.6952 184.247 37.163C185.017 36.6308 185.934 36.3647 186.997 36.3647C188.078 36.3647 188.967 36.6216 189.663 37.1355C190.36 37.6494 190.845 38.4385 191.12 39.5029H190.735C191.102 38.5303 191.707 37.7686 192.55 37.2181C193.393 36.6492 194.364 36.3647 195.464 36.3647C196.49 36.3647 197.333 36.5666 197.993 36.9703C198.671 37.3741 199.175 37.9889 199.505 38.8147C199.835 39.6222 200 40.6499 200 41.8979V48.5597C200 49.1286 199.844 49.5691 199.533 49.881C199.239 50.1747 198.818 50.3215 198.268 50.3215C197.718 50.3215 197.297 50.1747 197.003 49.881C196.71 49.5691 196.564 49.1286 196.564 48.5597V42.0355C196.564 41.0078 196.389 40.2554 196.041 39.7782C195.711 39.301 195.143 39.0625 194.337 39.0625C193.439 39.0625 192.733 39.3836 192.22 40.026C191.707 40.6499 191.45 41.5217 191.45 42.6411V48.5597C191.45 49.1286 191.304 49.5691 191.01 49.881C190.717 50.1747 190.296 50.3215 189.746 50.3215C189.196 50.3215 188.765 50.1747 188.454 49.881C188.16 49.5691 188.014 49.1286 188.014 48.5597V42.0355C188.014 41.0078 187.84 40.2554 187.491 39.7782C187.161 39.301 186.603 39.0625 185.814 39.0625C184.916 39.0625 184.211 39.3836 183.698 40.026C183.184 40.6499 182.928 41.5217 182.928 42.6411V48.5597C182.928 49.7342 182.351 50.3215 181.196 50.3215Z" fill="#041E49"/>
<path fill-rule="evenodd" clip-rule="evenodd" d="M38.462 37.6298C30.3091 34.7338 21.8929 37.8175 16.6228 41.3956C13.8445 43.2819 11.4808 45.4445 9.49698 48.2667C7.65891 50.8802 5.68997 54.2238 5.67017 58.4405C5.66358 59.7828 5.89066 61.9553 6.85725 62.2064C7.81066 62.4541 10.3575 61.5975 11.2124 61.3475C13.9599 60.5426 16.4325 59.6468 18.8001 58.5066C20.0158 57.9208 21.1874 57.4958 22.429 56.9871C23.2718 56.6413 24.1516 55.9206 25.0022 55.4014C30.898 51.7985 35.9404 47.0378 39.5176 41.2624C43.7942 45.7534 45.1754 52.8969 44.5981 61.0166C44.0691 68.458 40.9923 74.4641 35.6248 77.2692C29.5993 80.4185 20.9098 78.829 15.6336 76.014C9.96874 72.9919 5.84997 69.0609 3.031 63.3951C0.203777 57.7116 -0.732031 49.3221 0.590307 41.9231C3.14151 27.6442 9.52227 17.33 18.2068 9.08749C20.2967 7.10381 22.5912 5.20877 25.2006 3.47175C28.2923 1.41319 34.3124 -1.605 38.5945 1.02724C43.2416 3.88412 44.134 11.6074 43.2785 19.1303C42.4708 26.2359 40.868 32.5409 38.462 37.6298Z" fill="#05EECB"/>
<path fill-rule="evenodd" clip-rule="evenodd" d="M37.5383 39.81C34.297 45.7137 29.1374 50.1744 23.3521 53.7503C19.8931 55.8881 16.6173 57.1627 12.3341 58.5072C11.4186 58.794 8.94606 59.9122 8.30935 59.2994C7.56928 58.5892 8.29726 56.0258 8.63925 54.939C10.6775 48.4643 15.8266 43.9607 21.5718 41.1969C25.4904 39.3123 32.5596 37.501 37.5383 39.81Z" fill="#05EECB"/>
</svg>
